<mxfile host="app.diagrams.net" agent="Mozilla/5.0 (Windows NT 10.0; Win64; x64) AppleWebKit/537.36 (KHTML, like Gecko) Chrome/131.0.0.0 Safari/537.36" version="25.0.3">
  <diagram name="Page-1" id="-TBmlkCN2XZ9bOaUiwTd">
    <mxGraphModel dx="2757" dy="1457" grid="1" gridSize="10" guides="1" tooltips="1" connect="1" arrows="1" fold="1" page="1" pageScale="1" pageWidth="850" pageHeight="1100" math="0" shadow="0">
      <root>
        <mxCell id="0" />
        <mxCell id="1" parent="0" />
        <mxCell id="69ebYcusITzqZFjixZhx-3" value="" style="edgeStyle=orthogonalEdgeStyle;rounded=0;orthogonalLoop=1;jettySize=auto;html=1;" edge="1" parent="1" source="69ebYcusITzqZFjixZhx-1" target="69ebYcusITzqZFjixZhx-2">
          <mxGeometry relative="1" as="geometry" />
        </mxCell>
        <mxCell id="69ebYcusITzqZFjixZhx-1" value="เริ่ม" style="strokeWidth=2;html=1;shape=mxgraph.flowchart.start_1;whiteSpace=wrap;" vertex="1" parent="1">
          <mxGeometry x="375" y="100" width="100" height="60" as="geometry" />
        </mxCell>
        <mxCell id="69ebYcusITzqZFjixZhx-5" value="" style="edgeStyle=orthogonalEdgeStyle;rounded=0;orthogonalLoop=1;jettySize=auto;html=1;" edge="1" parent="1" source="69ebYcusITzqZFjixZhx-2" target="69ebYcusITzqZFjixZhx-4">
          <mxGeometry relative="1" as="geometry" />
        </mxCell>
        <mxCell id="69ebYcusITzqZFjixZhx-2" value="กำหนดตัวแปร" style="whiteSpace=wrap;html=1;strokeWidth=2;" vertex="1" parent="1">
          <mxGeometry x="365" y="240" width="120" height="60" as="geometry" />
        </mxCell>
        <mxCell id="69ebYcusITzqZFjixZhx-7" value="" style="edgeStyle=orthogonalEdgeStyle;rounded=0;orthogonalLoop=1;jettySize=auto;html=1;" edge="1" parent="1" source="69ebYcusITzqZFjixZhx-4" target="69ebYcusITzqZFjixZhx-6">
          <mxGeometry relative="1" as="geometry" />
        </mxCell>
        <mxCell id="69ebYcusITzqZFjixZhx-4" value="รับจำนวนอาเรย์ที่ต้องการสร้าง" style="shape=parallelogram;perimeter=parallelogramPerimeter;whiteSpace=wrap;html=1;fixedSize=1;strokeWidth=2;" vertex="1" parent="1">
          <mxGeometry x="365" y="380" width="120" height="60" as="geometry" />
        </mxCell>
        <mxCell id="69ebYcusITzqZFjixZhx-18" value="" style="edgeStyle=orthogonalEdgeStyle;rounded=0;orthogonalLoop=1;jettySize=auto;html=1;" edge="1" parent="1" source="69ebYcusITzqZFjixZhx-6" target="69ebYcusITzqZFjixZhx-15">
          <mxGeometry relative="1" as="geometry" />
        </mxCell>
        <mxCell id="69ebYcusITzqZFjixZhx-6" value="กำหนดตัวแปรอาเรย์" style="whiteSpace=wrap;html=1;strokeWidth=2;" vertex="1" parent="1">
          <mxGeometry x="365" y="520" width="120" height="60" as="geometry" />
        </mxCell>
        <mxCell id="69ebYcusITzqZFjixZhx-10" value="" style="edgeStyle=orthogonalEdgeStyle;rounded=0;orthogonalLoop=1;jettySize=auto;html=1;" edge="1" parent="1" source="69ebYcusITzqZFjixZhx-11" target="69ebYcusITzqZFjixZhx-13">
          <mxGeometry relative="1" as="geometry" />
        </mxCell>
        <mxCell id="69ebYcusITzqZFjixZhx-19" style="edgeStyle=orthogonalEdgeStyle;rounded=0;orthogonalLoop=1;jettySize=auto;html=1;" edge="1" parent="1" source="69ebYcusITzqZFjixZhx-11">
          <mxGeometry relative="1" as="geometry">
            <mxPoint x="425" y="1060" as="targetPoint" />
            <Array as="points">
              <mxPoint x="521" y="745" />
              <mxPoint x="521" y="1000" />
              <mxPoint x="425" y="1000" />
            </Array>
          </mxGeometry>
        </mxCell>
        <mxCell id="69ebYcusITzqZFjixZhx-11" value="กรอกค่าอาเรย์ครบไหม" style="rhombus;whiteSpace=wrap;html=1;strokeWidth=2;" vertex="1" parent="1">
          <mxGeometry x="355" y="680" width="140" height="130" as="geometry" />
        </mxCell>
        <mxCell id="69ebYcusITzqZFjixZhx-12" style="edgeStyle=orthogonalEdgeStyle;rounded=0;orthogonalLoop=1;jettySize=auto;html=1;entryX=0;entryY=0.5;entryDx=0;entryDy=0;entryPerimeter=0;" edge="1" parent="1" source="69ebYcusITzqZFjixZhx-13" target="69ebYcusITzqZFjixZhx-15">
          <mxGeometry relative="1" as="geometry">
            <mxPoint x="405" y="650" as="targetPoint" />
            <Array as="points">
              <mxPoint x="425" y="950" />
              <mxPoint x="426" y="950" />
              <mxPoint x="426" y="980" />
              <mxPoint x="315" y="980" />
              <mxPoint x="315" y="650" />
            </Array>
          </mxGeometry>
        </mxCell>
        <mxCell id="69ebYcusITzqZFjixZhx-13" value="กรอกค่าอาเรย์" style="shape=parallelogram;perimeter=parallelogramPerimeter;whiteSpace=wrap;html=1;fixedSize=1;strokeWidth=2;" vertex="1" parent="1">
          <mxGeometry x="365" y="860" width="120" height="60" as="geometry" />
        </mxCell>
        <mxCell id="69ebYcusITzqZFjixZhx-14" value="" style="edgeStyle=orthogonalEdgeStyle;rounded=0;orthogonalLoop=1;jettySize=auto;html=1;" edge="1" parent="1" source="69ebYcusITzqZFjixZhx-15" target="69ebYcusITzqZFjixZhx-11">
          <mxGeometry relative="1" as="geometry" />
        </mxCell>
        <mxCell id="69ebYcusITzqZFjixZhx-15" value="" style="verticalLabelPosition=bottom;verticalAlign=top;html=1;shape=mxgraph.flowchart.on-page_reference;" vertex="1" parent="1">
          <mxGeometry x="415" y="640" width="20" height="20" as="geometry" />
        </mxCell>
        <mxCell id="69ebYcusITzqZFjixZhx-16" value="ไม่ใช่" style="text;html=1;align=center;verticalAlign=middle;whiteSpace=wrap;rounded=0;" vertex="1" parent="1">
          <mxGeometry x="365" y="800" width="60" height="30" as="geometry" />
        </mxCell>
        <mxCell id="69ebYcusITzqZFjixZhx-17" value="ใช่" style="text;html=1;align=center;verticalAlign=middle;whiteSpace=wrap;rounded=0;" vertex="1" parent="1">
          <mxGeometry x="475" y="710" width="60" height="30" as="geometry" />
        </mxCell>
        <mxCell id="69ebYcusITzqZFjixZhx-20" value="" style="edgeStyle=orthogonalEdgeStyle;rounded=0;orthogonalLoop=1;jettySize=auto;html=1;" edge="1" parent="1" source="69ebYcusITzqZFjixZhx-22" target="69ebYcusITzqZFjixZhx-24">
          <mxGeometry relative="1" as="geometry" />
        </mxCell>
        <mxCell id="69ebYcusITzqZFjixZhx-21" style="edgeStyle=orthogonalEdgeStyle;rounded=0;orthogonalLoop=1;jettySize=auto;html=1;entryX=0.5;entryY=0;entryDx=0;entryDy=0;entryPerimeter=0;" edge="1" parent="1" source="69ebYcusITzqZFjixZhx-22" target="69ebYcusITzqZFjixZhx-35">
          <mxGeometry relative="1" as="geometry">
            <mxPoint x="425" y="1480" as="targetPoint" />
            <Array as="points">
              <mxPoint x="521" y="1165" />
              <mxPoint x="521" y="1420" />
              <mxPoint x="430" y="1420" />
            </Array>
          </mxGeometry>
        </mxCell>
        <mxCell id="69ebYcusITzqZFjixZhx-22" value="แสดงค่าอาเรย์ที่กรอกครบยัง" style="rhombus;whiteSpace=wrap;html=1;strokeWidth=2;" vertex="1" parent="1">
          <mxGeometry x="355" y="1100" width="140" height="130" as="geometry" />
        </mxCell>
        <mxCell id="69ebYcusITzqZFjixZhx-23" style="edgeStyle=orthogonalEdgeStyle;rounded=0;orthogonalLoop=1;jettySize=auto;html=1;entryX=0;entryY=0.5;entryDx=0;entryDy=0;entryPerimeter=0;" edge="1" parent="1" source="69ebYcusITzqZFjixZhx-24" target="69ebYcusITzqZFjixZhx-26">
          <mxGeometry relative="1" as="geometry">
            <mxPoint x="405" y="1070" as="targetPoint" />
            <Array as="points">
              <mxPoint x="425" y="1370" />
              <mxPoint x="426" y="1370" />
              <mxPoint x="426" y="1400" />
              <mxPoint x="315" y="1400" />
              <mxPoint x="315" y="1070" />
            </Array>
          </mxGeometry>
        </mxCell>
        <mxCell id="69ebYcusITzqZFjixZhx-24" value="แสดงค่าอาเรย์&lt;span style=&quot;color: rgba(0, 0, 0, 0); font-family: monospace; font-size: 0px; text-align: start; text-wrap-mode: nowrap;&quot;&gt;%3CmxGraphModel%3E%3Croot%3E%3CmxCell%20id%3D%220%22%2F%3E%3CmxCell%20id%3D%221%22%20parent%3D%220%22%2F%3E%3CmxCell%20id%3D%222%22%20value%3D%22%22%20style%3D%22edgeStyle%3DorthogonalEdgeStyle%3Brounded%3D0%3BorthogonalLoop%3D1%3BjettySize%3Dauto%3Bhtml%3D1%3B%22%20edge%3D%221%22%20source%3D%223%22%20target%3D%226%22%20parent%3D%221%22%3E%3CmxGeometry%20relative%3D%221%22%20as%3D%22geometry%22%2F%3E%3C%2FmxCell%3E%3CmxCell%20id%3D%223%22%20value%3D%22%E0%B9%80%E0%B8%A3%E0%B8%B5%E0%B8%A2%E0%B8%87%E0%B8%A5%E0%B8%B3%E0%B8%94%E0%B8%B1%E0%B8%9A%E0%B8%AD%E0%B8%B2%E0%B9%80%E0%B8%A3%E0%B8%A2%E0%B9%8C%E0%B8%88%E0%B8%B2%E0%B8%81%E0%B8%99%E0%B9%89%E0%B8%AD%E0%B8%A2%E0%B9%84%E0%B8%9B%E0%B8%A1%E0%B8%B2%E0%B8%81%E0%B9%80%E0%B8%AA%E0%B8%A3%E0%B9%87%E0%B8%88%E0%B9%84%E0%B8%AB%E0%B8%A1%22%20style%3D%22rhombus%3BwhiteSpace%3Dwrap%3Bhtml%3D1%3BstrokeWidth%3D2%3B%22%20vertex%3D%221%22%20parent%3D%221%22%3E%3CmxGeometry%20x%3D%22590%22%20y%3D%221451%22%20width%3D%22180%22%20height%3D%22171%22%20as%3D%22geometry%22%2F%3E%3C%2FmxCell%3E%3CmxCell%20id%3D%224%22%20value%3D%22%E0%B9%84%E0%B8%A1%E0%B9%88%E0%B9%83%E0%B8%8A%E0%B9%88%22%20style%3D%22text%3Bhtml%3D1%3Balign%3Dcenter%3BverticalAlign%3Dmiddle%3BwhiteSpace%3Dwrap%3Brounded%3D0%3B%22%20vertex%3D%221%22%20parent%3D%221%22%3E%3CmxGeometry%20x%3D%22610%22%20y%3D%221616%22%20width%3D%2260%22%20height%3D%2230%22%20as%3D%22geometry%22%2F%3E%3C%2FmxCell%3E%3CmxCell%20id%3D%225%22%20value%3D%22%E0%B9%83%E0%B8%8A%E0%B9%88%22%20style%3D%22text%3Bhtml%3D1%3Balign%3Dcenter%3BverticalAlign%3Dmiddle%3BwhiteSpace%3Dwrap%3Brounded%3D0%3B%22%20vertex%3D%221%22%20parent%3D%221%22%3E%3CmxGeometry%20x%3D%22750%22%20y%3D%221486%22%20width%3D%2260%22%20height%3D%2230%22%20as%3D%22geometry%22%2F%3E%3C%2FmxCell%3E%3CmxCell%20id%3D%226%22%20value%3D%22%E0%B9%80%E0%B8%A3%E0%B8%B5%E0%B8%A2%E0%B8%87%E0%B8%84%E0%B9%88%E0%B8%B2%E0%B8%AD%E0%B8%B2%E0%B9%80%E0%B8%A3%E0%B8%A2%E0%B9%8C%22%20style%3D%22whiteSpace%3Dwrap%3Bhtml%3D1%3BstrokeWidth%3D2%3B%22%20vertex%3D%221%22%20parent%3D%221%22%3E%3CmxGeometry%20x%3D%22620%22%20y%3D%221686%22%20width%3D%22120%22%20height%3D%2260%22%20as%3D%22geometry%22%2F%3E%3C%2FmxCell%3E%3C%2Froot%3E%3C%2FmxGraphModel%3E&lt;/span&gt;" style="shape=parallelogram;perimeter=parallelogramPerimeter;whiteSpace=wrap;html=1;fixedSize=1;strokeWidth=2;" vertex="1" parent="1">
          <mxGeometry x="365" y="1280" width="120" height="60" as="geometry" />
        </mxCell>
        <mxCell id="69ebYcusITzqZFjixZhx-25" value="" style="edgeStyle=orthogonalEdgeStyle;rounded=0;orthogonalLoop=1;jettySize=auto;html=1;" edge="1" parent="1" source="69ebYcusITzqZFjixZhx-26" target="69ebYcusITzqZFjixZhx-22">
          <mxGeometry relative="1" as="geometry" />
        </mxCell>
        <mxCell id="69ebYcusITzqZFjixZhx-26" value="" style="verticalLabelPosition=bottom;verticalAlign=top;html=1;shape=mxgraph.flowchart.on-page_reference;" vertex="1" parent="1">
          <mxGeometry x="415" y="1060" width="20" height="20" as="geometry" />
        </mxCell>
        <mxCell id="69ebYcusITzqZFjixZhx-27" value="ไม่ใช่" style="text;html=1;align=center;verticalAlign=middle;whiteSpace=wrap;rounded=0;" vertex="1" parent="1">
          <mxGeometry x="365" y="1220" width="60" height="30" as="geometry" />
        </mxCell>
        <mxCell id="69ebYcusITzqZFjixZhx-28" value="ใช่" style="text;html=1;align=center;verticalAlign=middle;whiteSpace=wrap;rounded=0;" vertex="1" parent="1">
          <mxGeometry x="475" y="1130" width="60" height="30" as="geometry" />
        </mxCell>
        <mxCell id="69ebYcusITzqZFjixZhx-29" value="" style="edgeStyle=orthogonalEdgeStyle;rounded=0;orthogonalLoop=1;jettySize=auto;html=1;" edge="1" parent="1" source="69ebYcusITzqZFjixZhx-30" target="69ebYcusITzqZFjixZhx-33">
          <mxGeometry relative="1" as="geometry" />
        </mxCell>
        <mxCell id="69ebYcusITzqZFjixZhx-38" style="edgeStyle=orthogonalEdgeStyle;rounded=0;orthogonalLoop=1;jettySize=auto;html=1;" edge="1" parent="1" source="69ebYcusITzqZFjixZhx-30">
          <mxGeometry relative="1" as="geometry">
            <mxPoint x="430" y="1870" as="targetPoint" />
            <Array as="points">
              <mxPoint x="540" y="1566" />
              <mxPoint x="540" y="1810" />
              <mxPoint x="430" y="1810" />
            </Array>
          </mxGeometry>
        </mxCell>
        <mxCell id="69ebYcusITzqZFjixZhx-30" value="เรียงลำดับอาเรย์จากมากไปน้อยเสร็จไหม" style="rhombus;whiteSpace=wrap;html=1;strokeWidth=2;" vertex="1" parent="1">
          <mxGeometry x="340" y="1480" width="180" height="171" as="geometry" />
        </mxCell>
        <mxCell id="69ebYcusITzqZFjixZhx-31" value="ไม่ใช่" style="text;html=1;align=center;verticalAlign=middle;whiteSpace=wrap;rounded=0;" vertex="1" parent="1">
          <mxGeometry x="360" y="1645" width="60" height="30" as="geometry" />
        </mxCell>
        <mxCell id="69ebYcusITzqZFjixZhx-32" value="ใช่" style="text;html=1;align=center;verticalAlign=middle;whiteSpace=wrap;rounded=0;" vertex="1" parent="1">
          <mxGeometry x="500" y="1515" width="60" height="30" as="geometry" />
        </mxCell>
        <mxCell id="69ebYcusITzqZFjixZhx-34" style="edgeStyle=orthogonalEdgeStyle;rounded=0;orthogonalLoop=1;jettySize=auto;html=1;entryX=0;entryY=0.5;entryDx=0;entryDy=0;entryPerimeter=0;" edge="1" parent="1" source="69ebYcusITzqZFjixZhx-33" target="69ebYcusITzqZFjixZhx-35">
          <mxGeometry relative="1" as="geometry">
            <mxPoint x="410" y="1450" as="targetPoint" />
            <Array as="points">
              <mxPoint x="321" y="1745" />
              <mxPoint x="321" y="1450" />
            </Array>
          </mxGeometry>
        </mxCell>
        <mxCell id="69ebYcusITzqZFjixZhx-33" value="เรียงค่าอาเรย์" style="whiteSpace=wrap;html=1;strokeWidth=2;" vertex="1" parent="1">
          <mxGeometry x="370" y="1715" width="120" height="60" as="geometry" />
        </mxCell>
        <mxCell id="69ebYcusITzqZFjixZhx-37" value="" style="edgeStyle=orthogonalEdgeStyle;rounded=0;orthogonalLoop=1;jettySize=auto;html=1;" edge="1" parent="1" source="69ebYcusITzqZFjixZhx-35" target="69ebYcusITzqZFjixZhx-30">
          <mxGeometry relative="1" as="geometry" />
        </mxCell>
        <mxCell id="69ebYcusITzqZFjixZhx-35" value="" style="verticalLabelPosition=bottom;verticalAlign=top;html=1;shape=mxgraph.flowchart.on-page_reference;" vertex="1" parent="1">
          <mxGeometry x="420" y="1440" width="20" height="20" as="geometry" />
        </mxCell>
        <mxCell id="69ebYcusITzqZFjixZhx-41" value="" style="edgeStyle=orthogonalEdgeStyle;rounded=0;orthogonalLoop=1;jettySize=auto;html=1;" edge="1" parent="1" source="69ebYcusITzqZFjixZhx-39" target="69ebYcusITzqZFjixZhx-40">
          <mxGeometry relative="1" as="geometry" />
        </mxCell>
        <mxCell id="69ebYcusITzqZFjixZhx-39" value="แสดงค่าอาเรย์มากที่สุดอันดับ3&lt;span style=&quot;color: rgba(0, 0, 0, 0); font-family: monospace; font-size: 0px; text-align: start; text-wrap-mode: nowrap;&quot;&gt;%3CmxGraphModel%3E%3Croot%3E%3CmxCell%20id%3D%220%22%2F%3E%3CmxCell%20id%3D%221%22%20parent%3D%220%22%2F%3E%3CmxCell%20id%3D%222%22%20value%3D%22%22%20style%3D%22edgeStyle%3DorthogonalEdgeStyle%3Brounded%3D0%3BorthogonalLoop%3D1%3BjettySize%3Dauto%3Bhtml%3D1%3B%22%20edge%3D%221%22%20source%3D%223%22%20target%3D%226%22%20parent%3D%221%22%3E%3CmxGeometry%20relative%3D%221%22%20as%3D%22geometry%22%2F%3E%3C%2FmxCell%3E%3CmxCell%20id%3D%223%22%20value%3D%22%E0%B9%80%E0%B8%A3%E0%B8%B5%E0%B8%A2%E0%B8%87%E0%B8%A5%E0%B8%B3%E0%B8%94%E0%B8%B1%E0%B8%9A%E0%B8%AD%E0%B8%B2%E0%B9%80%E0%B8%A3%E0%B8%A2%E0%B9%8C%E0%B8%88%E0%B8%B2%E0%B8%81%E0%B8%99%E0%B9%89%E0%B8%AD%E0%B8%A2%E0%B9%84%E0%B8%9B%E0%B8%A1%E0%B8%B2%E0%B8%81%E0%B9%80%E0%B8%AA%E0%B8%A3%E0%B9%87%E0%B8%88%E0%B9%84%E0%B8%AB%E0%B8%A1%22%20style%3D%22rhombus%3BwhiteSpace%3Dwrap%3Bhtml%3D1%3BstrokeWidth%3D2%3B%22%20vertex%3D%221%22%20parent%3D%221%22%3E%3CmxGeometry%20x%3D%22590%22%20y%3D%221451%22%20width%3D%22180%22%20height%3D%22171%22%20as%3D%22geometry%22%2F%3E%3C%2FmxCell%3E%3CmxCell%20id%3D%224%22%20value%3D%22%E0%B9%84%E0%B8%A1%E0%B9%88%E0%B9%83%E0%B8%8A%E0%B9%88%22%20style%3D%22text%3Bhtml%3D1%3Balign%3Dcenter%3BverticalAlign%3Dmiddle%3BwhiteSpace%3Dwrap%3Brounded%3D0%3B%22%20vertex%3D%221%22%20parent%3D%221%22%3E%3CmxGeometry%20x%3D%22610%22%20y%3D%221616%22%20width%3D%2260%22%20height%3D%2230%22%20as%3D%22geometry%22%2F%3E%3C%2FmxCell%3E%3CmxCell%20id%3D%225%22%20value%3D%22%E0%B9%83%E0%B8%8A%E0%B9%88%22%20style%3D%22text%3Bhtml%3D1%3Balign%3Dcenter%3BverticalAlign%3Dmiddle%3BwhiteSpace%3Dwrap%3Brounded%3D0%3B%22%20vertex%3D%221%22%20parent%3D%221%22%3E%3CmxGeometry%20x%3D%22750%22%20y%3D%221486%22%20width%3D%2260%22%20height%3D%2230%22%20as%3D%22geometry%22%2F%3E%3C%2FmxCell%3E%3CmxCell%20id%3D%226%22%20value%3D%22%E0%B9%80%E0%B8%A3%E0%B8%B5%E0%B8%A2%E0%B8%87%E0%B8%84%E0%B9%88%E0%B8%B2%E0%B8%AD%E0%B8%B2%E0%B9%80%E0%B8%A3%E0%B8%A2%E0%B9%8C%22%20style%3D%22whiteSpace%3Dwrap%3Bhtml%3D1%3BstrokeWidth%3D2%3B%22%20vertex%3D%221%22%20parent%3D%221%22%3E%3CmxGeometry%20x%3D%22620%22%20y%3D%221686%22%20width%3D%22120%22%20height%3D%2260%22%20as%3D%22geometry%22%2F%3E%3C%2FmxCell%3E%3C%2Froot%3E%3C%2FmxGraphModel%3E&lt;/span&gt;" style="shape=parallelogram;perimeter=parallelogramPerimeter;whiteSpace=wrap;html=1;fixedSize=1;strokeWidth=2;" vertex="1" parent="1">
          <mxGeometry x="370" y="1870" width="120" height="60" as="geometry" />
        </mxCell>
        <mxCell id="69ebYcusITzqZFjixZhx-40" value="จบ" style="strokeWidth=2;html=1;shape=mxgraph.flowchart.start_1;whiteSpace=wrap;" vertex="1" parent="1">
          <mxGeometry x="380" y="2020" width="100" height="60" as="geometry" />
        </mxCell>
      </root>
    </mxGraphModel>
  </diagram>
</mxfile>
